# Vectary OBJ Export units=mm
mtllib Chair.mtl
o 000_Box_10
g Box_10
usemtl Porcelain 5_e3f22bee-3087-42ef-be38-c6a6c5ac2cf9
v 902.987 420.000 -1955.000
v 852.987 420.000 -2005.000
v 902.987 420.000 -2005.000
v 852.987 420.000 -1955.000
v 852.987 820.000 -1955.000
v 852.987 820.000 -2005.000
v 902.987 820.000 -1955.000
v 902.987 820.000 -2005.000
vt 0.00000 0.00000
vt 1.00000 1.00000
vt 0.00000 1.00000
vt 1.00000 0.00000
vt 0.00000 0.00000
vt 1.00000 1.00000
vt 0.00000 1.00000
vt 1.00000 0.00000
vt 0.00000 0.00000
vt 1.00000 1.00000
vt 0.00000 1.00000
vt 1.00000 0.00000
vt 0.00000 0.00000
vt 1.00000 1.00000
vt 0.00000 1.00000
vt 1.00000 0.00000
vt 0.00000 0.00000
vt 1.00000 1.00000
vt 0.00000 1.00000
vt 1.00000 0.00000
vt 0.00000 0.00000
vt 1.00000 1.00000
vt 0.00000 1.00000
vt 1.00000 0.00000
vn 0.00000 -1.00000 -0.00000
vn 0.00000 -1.00000 -0.00000
vn 0.00000 -1.00000 -0.00000
vn 0.00000 -1.00000 -0.00000
vn -1.00000 0.00000 0.00000
vn -1.00000 0.00000 0.00000
vn -1.00000 0.00000 0.00000
vn -1.00000 0.00000 0.00000
vn 0.00000 -0.00000 1.00000
vn 0.00000 -0.00000 1.00000
vn 0.00000 -0.00000 1.00000
vn 0.00000 -0.00000 1.00000
vn 0.00000 0.00000 -1.00000
vn 0.00000 0.00000 -1.00000
vn 0.00000 0.00000 -1.00000
vn 0.00000 0.00000 -1.00000
vn 1.00000 0.00000 0.00000
vn 1.00000 0.00000 0.00000
vn 1.00000 0.00000 0.00000
vn 1.00000 0.00000 0.00000
vn 0.00000 1.00000 0.00000
vn 0.00000 1.00000 0.00000
vn 0.00000 1.00000 0.00000
vn 0.00000 1.00000 0.00000
f 3/3/3 1/1/1 4/4/4 2/2/2 
f 6/7/7 2/5/5 4/8/8 5/6/6 
f 5/11/11 4/9/9 1/12/12 7/10/10 
f 8/15/15 3/13/13 2/16/16 6/14/14 
f 7/19/19 1/17/17 3/20/20 8/18/18 
f 6/23/23 5/21/21 7/24/24 8/22/22 
o 001_Box_11
g Box_11
usemtl Porcelain 6_89692193-df25-4ea9-b4ed-dcc8f9562bef
v 465.000 420.000 -1955.000
v 415.000 420.000 -2005.000
v 465.000 420.000 -2005.000
v 415.000 420.000 -1955.000
v 415.000 820.000 -1955.000
v 415.000 820.000 -2005.000
v 465.000 820.000 -1955.000
v 465.000 820.000 -2005.000
vt 0.00000 0.00000
vt 1.00000 1.00000
vt 0.00000 1.00000
vt 1.00000 0.00000
vt 0.00000 0.00000
vt 1.00000 1.00000
vt 0.00000 1.00000
vt 1.00000 0.00000
vt 0.00000 0.00000
vt 1.00000 1.00000
vt 0.00000 1.00000
vt 1.00000 0.00000
vt 0.00000 0.00000
vt 1.00000 1.00000
vt 0.00000 1.00000
vt 1.00000 0.00000
vt 0.00000 0.00000
vt 1.00000 1.00000
vt 0.00000 1.00000
vt 1.00000 0.00000
vt 0.00000 0.00000
vt 1.00000 1.00000
vt 0.00000 1.00000
vt 1.00000 0.00000
vn 0.00000 -1.00000 -0.00000
vn 0.00000 -1.00000 -0.00000
vn 0.00000 -1.00000 -0.00000
vn 0.00000 -1.00000 -0.00000
vn -1.00000 0.00000 0.00000
vn -1.00000 0.00000 0.00000
vn -1.00000 0.00000 0.00000
vn -1.00000 0.00000 0.00000
vn 0.00000 -0.00000 1.00000
vn 0.00000 -0.00000 1.00000
vn 0.00000 -0.00000 1.00000
vn 0.00000 -0.00000 1.00000
vn 0.00000 0.00000 -1.00000
vn 0.00000 0.00000 -1.00000
vn 0.00000 0.00000 -1.00000
vn 0.00000 0.00000 -1.00000
vn 1.00000 0.00000 0.00000
vn 1.00000 0.00000 0.00000
vn 1.00000 0.00000 0.00000
vn 1.00000 0.00000 0.00000
vn 0.00000 1.00000 0.00000
vn 0.00000 1.00000 0.00000
vn 0.00000 1.00000 0.00000
vn 0.00000 1.00000 0.00000
f 11/27/27 9/25/25 12/28/28 10/26/26 
f 14/31/31 10/29/29 12/32/32 13/30/30 
f 13/35/35 12/33/33 9/36/36 15/34/34 
f 16/39/39 11/37/37 10/40/40 14/38/38 
f 15/43/43 9/41/41 11/44/44 16/42/42 
f 14/47/47 13/45/45 15/48/48 16/46/46 
o 002_Box_8
g Box_8
usemtl Porcelain 3_b84bc8d5-0c8d-4875-b99c-0bd11d6499b3
v 902.987 0.000 -1955.000
v 852.987 0.000 -2005.000
v 902.987 0.000 -2005.000
v 852.987 0.000 -1955.000
v 852.987 400.000 -1955.000
v 852.987 400.000 -2005.000
v 902.987 400.000 -1955.000
v 902.987 400.000 -2005.000
vt 0.00000 0.00000
vt 1.00000 1.00000
vt 0.00000 1.00000
vt 1.00000 0.00000
vt 0.00000 0.00000
vt 1.00000 1.00000
vt 0.00000 1.00000
vt 1.00000 0.00000
vt 0.00000 0.00000
vt 1.00000 1.00000
vt 0.00000 1.00000
vt 1.00000 0.00000
vt 0.00000 0.00000
vt 1.00000 1.00000
vt 0.00000 1.00000
vt 1.00000 0.00000
vt 0.00000 0.00000
vt 1.00000 1.00000
vt 0.00000 1.00000
vt 1.00000 0.00000
vt 0.00000 0.00000
vt 1.00000 1.00000
vt 0.00000 1.00000
vt 1.00000 0.00000
vn 0.00000 -1.00000 -0.00000
vn 0.00000 -1.00000 -0.00000
vn 0.00000 -1.00000 -0.00000
vn 0.00000 -1.00000 -0.00000
vn -1.00000 0.00000 0.00000
vn -1.00000 0.00000 0.00000
vn -1.00000 0.00000 0.00000
vn -1.00000 0.00000 0.00000
vn 0.00000 -0.00000 1.00000
vn 0.00000 -0.00000 1.00000
vn 0.00000 -0.00000 1.00000
vn 0.00000 -0.00000 1.00000
vn 0.00000 0.00000 -1.00000
vn 0.00000 0.00000 -1.00000
vn 0.00000 0.00000 -1.00000
vn 0.00000 0.00000 -1.00000
vn 1.00000 0.00000 0.00000
vn 1.00000 0.00000 0.00000
vn 1.00000 0.00000 0.00000
vn 1.00000 0.00000 0.00000
vn 0.00000 1.00000 0.00000
vn 0.00000 1.00000 0.00000
vn 0.00000 1.00000 0.00000
vn 0.00000 1.00000 0.00000
f 19/51/51 17/49/49 20/52/52 18/50/50 
f 22/55/55 18/53/53 20/56/56 21/54/54 
f 21/59/59 20/57/57 17/60/60 23/58/58 
f 24/63/63 19/61/61 18/64/64 22/62/62 
f 23/67/67 17/65/65 19/68/68 24/66/66 
f 22/71/71 21/69/69 23/72/72 24/70/70 
o 003_Box_9
g Box_9
usemtl Porcelain 4_a0ffc3e2-1557-4cc9-a938-bf76710b79d8
v 902.987 0.000 -1515.000
v 852.987 0.000 -1565.000
v 902.987 0.000 -1565.000
v 852.987 0.000 -1515.000
v 852.987 400.000 -1515.000
v 852.987 400.000 -1565.000
v 902.987 400.000 -1515.000
v 902.987 400.000 -1565.000
vt 0.00000 0.00000
vt 1.00000 1.00000
vt 0.00000 1.00000
vt 1.00000 0.00000
vt 0.00000 0.00000
vt 1.00000 1.00000
vt 0.00000 1.00000
vt 1.00000 0.00000
vt 0.00000 0.00000
vt 1.00000 1.00000
vt 0.00000 1.00000
vt 1.00000 0.00000
vt 0.00000 0.00000
vt 1.00000 1.00000
vt 0.00000 1.00000
vt 1.00000 0.00000
vt 0.00000 0.00000
vt 1.00000 1.00000
vt 0.00000 1.00000
vt 1.00000 0.00000
vt 0.00000 0.00000
vt 1.00000 1.00000
vt 0.00000 1.00000
vt 1.00000 0.00000
vn 0.00000 -1.00000 -0.00000
vn 0.00000 -1.00000 -0.00000
vn 0.00000 -1.00000 -0.00000
vn 0.00000 -1.00000 -0.00000
vn -1.00000 0.00000 0.00000
vn -1.00000 0.00000 0.00000
vn -1.00000 0.00000 0.00000
vn -1.00000 0.00000 0.00000
vn 0.00000 -0.00000 1.00000
vn 0.00000 -0.00000 1.00000
vn 0.00000 -0.00000 1.00000
vn 0.00000 -0.00000 1.00000
vn 0.00000 0.00000 -1.00000
vn 0.00000 0.00000 -1.00000
vn 0.00000 0.00000 -1.00000
vn 0.00000 0.00000 -1.00000
vn 1.00000 0.00000 0.00000
vn 1.00000 0.00000 0.00000
vn 1.00000 0.00000 0.00000
vn 1.00000 0.00000 0.00000
vn 0.00000 1.00000 0.00000
vn 0.00000 1.00000 0.00000
vn 0.00000 1.00000 0.00000
vn 0.00000 1.00000 0.00000
f 27/75/75 25/73/73 28/76/76 26/74/74 
f 30/79/79 26/77/77 28/80/80 29/78/78 
f 29/83/83 28/81/81 25/84/84 31/82/82 
f 32/87/87 27/85/85 26/88/88 30/86/86 
f 31/91/91 25/89/89 27/92/92 32/90/90 
f 30/95/95 29/93/93 31/96/96 32/94/94 
o 004_Box_7
g Box_7
usemtl Porcelain 2_5041d911-5d99-436e-bb0f-1fe46b82ccae
v 465.000 0.000 -1955.000
v 415.000 0.000 -2005.000
v 465.000 0.000 -2005.000
v 415.000 0.000 -1955.000
v 415.000 400.000 -1955.000
v 415.000 400.000 -2005.000
v 465.000 400.000 -1955.000
v 465.000 400.000 -2005.000
vt 0.00000 0.00000
vt 1.00000 1.00000
vt 0.00000 1.00000
vt 1.00000 0.00000
vt 0.00000 0.00000
vt 1.00000 1.00000
vt 0.00000 1.00000
vt 1.00000 0.00000
vt 0.00000 0.00000
vt 1.00000 1.00000
vt 0.00000 1.00000
vt 1.00000 0.00000
vt 0.00000 0.00000
vt 1.00000 1.00000
vt 0.00000 1.00000
vt 1.00000 0.00000
vt 0.00000 0.00000
vt 1.00000 1.00000
vt 0.00000 1.00000
vt 1.00000 0.00000
vt 0.00000 0.00000
vt 1.00000 1.00000
vt 0.00000 1.00000
vt 1.00000 0.00000
vn 0.00000 -1.00000 -0.00000
vn 0.00000 -1.00000 -0.00000
vn 0.00000 -1.00000 -0.00000
vn 0.00000 -1.00000 -0.00000
vn -1.00000 0.00000 0.00000
vn -1.00000 0.00000 0.00000
vn -1.00000 0.00000 0.00000
vn -1.00000 0.00000 0.00000
vn 0.00000 -0.00000 1.00000
vn 0.00000 -0.00000 1.00000
vn 0.00000 -0.00000 1.00000
vn 0.00000 -0.00000 1.00000
vn 0.00000 0.00000 -1.00000
vn 0.00000 0.00000 -1.00000
vn 0.00000 0.00000 -1.00000
vn 0.00000 0.00000 -1.00000
vn 1.00000 0.00000 0.00000
vn 1.00000 0.00000 0.00000
vn 1.00000 0.00000 0.00000
vn 1.00000 0.00000 0.00000
vn 0.00000 1.00000 0.00000
vn 0.00000 1.00000 0.00000
vn 0.00000 1.00000 0.00000
vn 0.00000 1.00000 0.00000
f 35/99/99 33/97/97 36/100/100 34/98/98 
f 38/103/103 34/101/101 36/104/104 37/102/102 
f 37/107/107 36/105/105 33/108/108 39/106/106 
f 40/111/111 35/109/109 34/112/112 38/110/110 
f 39/115/115 33/113/113 35/116/116 40/114/114 
f 38/119/119 37/117/117 39/120/120 40/118/118 
o 005_Box_5
g Box_5
usemtl Porcelain 1_4aadd201-c7a4-40ea-913c-2da74408eab2
v 465.000 0.000 -1515.000
v 415.000 0.000 -1565.000
v 465.000 0.000 -1565.000
v 415.000 0.000 -1515.000
v 415.000 400.000 -1515.000
v 415.000 400.000 -1565.000
v 465.000 400.000 -1515.000
v 465.000 400.000 -1565.000
vt 0.00000 0.00000
vt 1.00000 1.00000
vt 0.00000 1.00000
vt 1.00000 0.00000
vt 0.00000 0.00000
vt 1.00000 1.00000
vt 0.00000 1.00000
vt 1.00000 0.00000
vt 0.00000 0.00000
vt 1.00000 1.00000
vt 0.00000 1.00000
vt 1.00000 0.00000
vt 0.00000 0.00000
vt 1.00000 1.00000
vt 0.00000 1.00000
vt 1.00000 0.00000
vt 0.00000 0.00000
vt 1.00000 1.00000
vt 0.00000 1.00000
vt 1.00000 0.00000
vt 0.00000 0.00000
vt 1.00000 1.00000
vt 0.00000 1.00000
vt 1.00000 0.00000
vn 0.00000 -1.00000 -0.00000
vn 0.00000 -1.00000 -0.00000
vn 0.00000 -1.00000 -0.00000
vn 0.00000 -1.00000 -0.00000
vn -1.00000 0.00000 0.00000
vn -1.00000 0.00000 0.00000
vn -1.00000 0.00000 0.00000
vn -1.00000 0.00000 0.00000
vn 0.00000 -0.00000 1.00000
vn 0.00000 -0.00000 1.00000
vn 0.00000 -0.00000 1.00000
vn 0.00000 -0.00000 1.00000
vn 0.00000 0.00000 -1.00000
vn 0.00000 0.00000 -1.00000
vn 0.00000 0.00000 -1.00000
vn 0.00000 0.00000 -1.00000
vn 1.00000 0.00000 0.00000
vn 1.00000 0.00000 0.00000
vn 1.00000 0.00000 0.00000
vn 1.00000 0.00000 0.00000
vn 0.00000 1.00000 0.00000
vn 0.00000 1.00000 0.00000
vn 0.00000 1.00000 0.00000
vn 0.00000 1.00000 0.00000
f 43/123/123 41/121/121 44/124/124 42/122/122 
f 46/127/127 42/125/125 44/128/128 45/126/126 
f 45/131/131 44/129/129 41/132/132 47/130/130 
f 48/135/135 43/133/133 42/136/136 46/134/134 
f 47/139/139 41/137/137 43/140/140 48/138/138 
f 46/143/143 45/141/141 47/144/144 48/142/142 
o 006_Box_12
g Box_12
usemtl Irish Beauty 2_dd97b838-1675-4127-b68e-9b594b757b18
v 910.000 825.000 -1930.000
v 410.000 615.000 -1930.000
v 910.000 615.000 -1930.000
v 410.000 825.000 -1930.000
v 410.000 825.000 -1962.000
v 410.000 615.000 -1962.000
v 910.000 825.000 -1962.000
v 910.000 615.000 -1962.000
vt 0.00000 0.00000
vt 1.00000 1.00000
vt 0.00000 1.00000
vt 1.00000 0.00000
vt 0.00000 0.00000
vt 1.00000 1.00000
vt 0.00000 1.00000
vt 1.00000 0.00000
vt 0.00000 0.00000
vt 1.00000 1.00000
vt 0.00000 1.00000
vt 1.00000 0.00000
vt 0.00000 0.00000
vt 1.00000 1.00000
vt 0.00000 1.00000
vt 1.00000 0.00000
vt 0.00000 0.00000
vt 1.00000 1.00000
vt 0.00000 1.00000
vt 1.00000 0.00000
vt 0.00000 0.00000
vt 1.00000 1.00000
vt 0.00000 1.00000
vt 1.00000 0.00000
vn 0.00000 -0.00000 1.00000
vn 0.00000 -0.00000 1.00000
vn 0.00000 -0.00000 1.00000
vn 0.00000 -0.00000 1.00000
vn -1.00000 0.00000 0.00000
vn -1.00000 0.00000 0.00000
vn -1.00000 0.00000 0.00000
vn -1.00000 0.00000 0.00000
vn 0.00000 1.00000 0.00000
vn 0.00000 1.00000 0.00000
vn 0.00000 1.00000 0.00000
vn 0.00000 1.00000 0.00000
vn 0.00000 -1.00000 -0.00000
vn 0.00000 -1.00000 -0.00000
vn 0.00000 -1.00000 -0.00000
vn 0.00000 -1.00000 -0.00000
vn 1.00000 0.00000 0.00000
vn 1.00000 0.00000 0.00000
vn 1.00000 0.00000 0.00000
vn 1.00000 0.00000 0.00000
vn 0.00000 0.00000 -1.00000
vn 0.00000 0.00000 -1.00000
vn 0.00000 0.00000 -1.00000
vn 0.00000 0.00000 -1.00000
f 51/147/147 49/145/145 52/148/148 50/146/146 
f 54/151/151 50/149/149 52/152/152 53/150/150 
f 53/155/155 52/153/153 49/156/156 55/154/154 
f 56/159/159 51/157/157 50/160/160 54/158/158 
f 55/163/163 49/161/161 51/164/164 56/162/162 
f 54/167/167 53/165/165 55/168/168 56/166/166 
o 007_Box_6
g Box_6
usemtl Irish Beauty 1_19bc47e2-baa3-43f6-8832-8067eb1dfb16
v 910.000 390.000 -1510.000
v 410.000 390.000 -2010.000
v 910.000 390.000 -2010.000
v 410.000 390.000 -1510.000
v 410.000 422.000 -1510.000
v 410.000 422.000 -2010.000
v 910.000 422.000 -1510.000
v 910.000 422.000 -2010.000
vt 0.00000 0.00000
vt 1.00000 1.00000
vt 0.00000 1.00000
vt 1.00000 0.00000
vt 0.00000 0.00000
vt 1.00000 1.00000
vt 0.00000 1.00000
vt 1.00000 0.00000
vt 0.00000 0.00000
vt 1.00000 1.00000
vt 0.00000 1.00000
vt 1.00000 0.00000
vt 0.00000 0.00000
vt 1.00000 1.00000
vt 0.00000 1.00000
vt 1.00000 0.00000
vt 0.00000 0.00000
vt 1.00000 1.00000
vt 0.00000 1.00000
vt 1.00000 0.00000
vt 0.00000 0.00000
vt 1.00000 1.00000
vt 0.00000 1.00000
vt 1.00000 0.00000
vn 0.00000 -1.00000 -0.00000
vn 0.00000 -1.00000 -0.00000
vn 0.00000 -1.00000 -0.00000
vn 0.00000 -1.00000 -0.00000
vn -1.00000 0.00000 0.00000
vn -1.00000 0.00000 0.00000
vn -1.00000 0.00000 0.00000
vn -1.00000 0.00000 0.00000
vn 0.00000 -0.00000 1.00000
vn 0.00000 -0.00000 1.00000
vn 0.00000 -0.00000 1.00000
vn 0.00000 -0.00000 1.00000
vn 0.00000 0.00000 -1.00000
vn 0.00000 0.00000 -1.00000
vn 0.00000 0.00000 -1.00000
vn 0.00000 0.00000 -1.00000
vn 1.00000 0.00000 0.00000
vn 1.00000 0.00000 0.00000
vn 1.00000 0.00000 0.00000
vn 1.00000 0.00000 0.00000
vn 0.00000 1.00000 0.00000
vn 0.00000 1.00000 0.00000
vn 0.00000 1.00000 0.00000
vn 0.00000 1.00000 0.00000
f 59/171/171 57/169/169 60/172/172 58/170/170 
f 62/175/175 58/173/173 60/176/176 61/174/174 
f 61/179/179 60/177/177 57/180/180 63/178/178 
f 64/183/183 59/181/181 58/184/184 62/182/182 
f 63/187/187 57/185/185 59/188/188 64/186/186 
f 62/191/191 61/189/189 63/192/192 64/190/190 
