# Vectary OBJ Export units=mm
mtllib Table.mtl
o 000_Box_2
g Box_2
usemtl Porcelain_47ea80bb-c677-4db3-8220-404cf8a16398
v -5.000 -0.000 25.000
v -55.000 0.000 -25.000
v -5.000 0.000 -25.000
v -55.000 -0.000 25.000
v -55.000 700.000 25.000
v -55.000 700.000 -25.000
v -5.000 700.000 25.000
v -5.000 700.000 -25.000
vt 0.00000 0.00000
vt 1.00000 1.00000
vt 0.00000 1.00000
vt 1.00000 0.00000
vt 0.00000 0.00000
vt 1.00000 1.00000
vt 0.00000 1.00000
vt 1.00000 0.00000
vt 0.00000 0.00000
vt 1.00000 1.00000
vt 0.00000 1.00000
vt 1.00000 0.00000
vt 0.00000 0.00000
vt 1.00000 1.00000
vt 0.00000 1.00000
vt 1.00000 0.00000
vt 0.00000 0.00000
vt 1.00000 1.00000
vt 0.00000 1.00000
vt 1.00000 0.00000
vt 0.00000 0.00000
vt 1.00000 1.00000
vt 0.00000 1.00000
vt 1.00000 0.00000
vn 0.00000 -1.00000 -0.00000
vn 0.00000 -1.00000 -0.00000
vn 0.00000 -1.00000 -0.00000
vn 0.00000 -1.00000 -0.00000
vn -1.00000 0.00000 0.00000
vn -1.00000 0.00000 0.00000
vn -1.00000 0.00000 0.00000
vn -1.00000 0.00000 0.00000
vn 0.00000 -0.00000 1.00000
vn 0.00000 -0.00000 1.00000
vn 0.00000 -0.00000 1.00000
vn 0.00000 -0.00000 1.00000
vn 0.00000 0.00000 -1.00000
vn 0.00000 0.00000 -1.00000
vn 0.00000 0.00000 -1.00000
vn 0.00000 0.00000 -1.00000
vn 1.00000 0.00000 0.00000
vn 1.00000 0.00000 0.00000
vn 1.00000 0.00000 0.00000
vn 1.00000 0.00000 0.00000
vn 0.00000 1.00000 0.00000
vn 0.00000 1.00000 0.00000
vn 0.00000 1.00000 0.00000
vn 0.00000 1.00000 0.00000
f 3/3/3 1/1/1 4/4/4 2/2/2 
f 6/7/7 2/5/5 4/8/8 5/6/6 
f 5/11/11 4/9/9 1/12/12 7/10/10 
f 8/15/15 3/13/13 2/16/16 6/14/14 
f 7/19/19 1/17/17 3/20/20 8/18/18 
f 6/23/23 5/21/21 7/24/24 8/22/22 
o 001_Box_3
g Box_3
usemtl Porcelain_47ea80bb-c677-4db3-8220-404cf8a16398
v 1415.000 0.000 -695.000
v 1365.000 0.000 -745.000
v 1415.000 0.000 -745.000
v 1365.000 0.000 -695.000
v 1365.000 700.000 -695.000
v 1365.000 700.000 -745.000
v 1415.000 700.000 -695.000
v 1415.000 700.000 -745.000
vt 0.00000 0.00000
vt 1.00000 1.00000
vt 0.00000 1.00000
vt 1.00000 0.00000
vt 0.00000 0.00000
vt 1.00000 1.00000
vt 0.00000 1.00000
vt 1.00000 0.00000
vt 0.00000 0.00000
vt 1.00000 1.00000
vt 0.00000 1.00000
vt 1.00000 0.00000
vt 0.00000 0.00000
vt 1.00000 1.00000
vt 0.00000 1.00000
vt 1.00000 0.00000
vt 0.00000 0.00000
vt 1.00000 1.00000
vt 0.00000 1.00000
vt 1.00000 0.00000
vt 0.00000 0.00000
vt 1.00000 1.00000
vt 0.00000 1.00000
vt 1.00000 0.00000
vn 0.00000 -1.00000 -0.00000
vn 0.00000 -1.00000 -0.00000
vn 0.00000 -1.00000 -0.00000
vn 0.00000 -1.00000 -0.00000
vn -1.00000 0.00000 0.00000
vn -1.00000 0.00000 0.00000
vn -1.00000 0.00000 0.00000
vn -1.00000 0.00000 0.00000
vn 0.00000 -0.00000 1.00000
vn 0.00000 -0.00000 1.00000
vn 0.00000 -0.00000 1.00000
vn 0.00000 -0.00000 1.00000
vn 0.00000 0.00000 -1.00000
vn 0.00000 0.00000 -1.00000
vn 0.00000 0.00000 -1.00000
vn 0.00000 0.00000 -1.00000
vn 1.00000 0.00000 0.00000
vn 1.00000 0.00000 0.00000
vn 1.00000 0.00000 0.00000
vn 1.00000 0.00000 0.00000
vn 0.00000 1.00000 0.00000
vn 0.00000 1.00000 0.00000
vn 0.00000 1.00000 0.00000
vn 0.00000 1.00000 0.00000
f 11/27/27 9/25/25 12/28/28 10/26/26 
f 14/31/31 10/29/29 12/32/32 13/30/30 
f 13/35/35 12/33/33 9/36/36 15/34/34 
f 16/39/39 11/37/37 10/40/40 14/38/38 
f 15/43/43 9/41/41 11/44/44 16/42/42 
f 14/47/47 13/45/45 15/48/48 16/46/46 
o 002_Box_4
g Box_4
usemtl Porcelain_47ea80bb-c677-4db3-8220-404cf8a16398
v 1415.000 -0.000 25.000
v 1365.000 0.000 -25.000
v 1415.000 0.000 -25.000
v 1365.000 -0.000 25.000
v 1365.000 700.000 25.000
v 1365.000 700.000 -25.000
v 1415.000 700.000 25.000
v 1415.000 700.000 -25.000
vt 0.00000 0.00000
vt 1.00000 1.00000
vt 0.00000 1.00000
vt 1.00000 0.00000
vt 0.00000 0.00000
vt 1.00000 1.00000
vt 0.00000 1.00000
vt 1.00000 0.00000
vt 0.00000 0.00000
vt 1.00000 1.00000
vt 0.00000 1.00000
vt 1.00000 0.00000
vt 0.00000 0.00000
vt 1.00000 1.00000
vt 0.00000 1.00000
vt 1.00000 0.00000
vt 0.00000 0.00000
vt 1.00000 1.00000
vt 0.00000 1.00000
vt 1.00000 0.00000
vt 0.00000 0.00000
vt 1.00000 1.00000
vt 0.00000 1.00000
vt 1.00000 0.00000
vn 0.00000 -1.00000 -0.00000
vn 0.00000 -1.00000 -0.00000
vn 0.00000 -1.00000 -0.00000
vn 0.00000 -1.00000 -0.00000
vn -1.00000 0.00000 0.00000
vn -1.00000 0.00000 0.00000
vn -1.00000 0.00000 0.00000
vn -1.00000 0.00000 0.00000
vn 0.00000 -0.00000 1.00000
vn 0.00000 -0.00000 1.00000
vn 0.00000 -0.00000 1.00000
vn 0.00000 -0.00000 1.00000
vn 0.00000 0.00000 -1.00000
vn 0.00000 0.00000 -1.00000
vn 0.00000 0.00000 -1.00000
vn 0.00000 0.00000 -1.00000
vn 1.00000 0.00000 0.00000
vn 1.00000 0.00000 0.00000
vn 1.00000 0.00000 0.00000
vn 1.00000 0.00000 0.00000
vn 0.00000 1.00000 0.00000
vn 0.00000 1.00000 0.00000
vn 0.00000 1.00000 0.00000
vn 0.00000 1.00000 0.00000
f 19/51/51 17/49/49 20/52/52 18/50/50 
f 22/55/55 18/53/53 20/56/56 21/54/54 
f 21/59/59 20/57/57 17/60/60 23/58/58 
f 24/63/63 19/61/61 18/64/64 22/62/62 
f 23/67/67 17/65/65 19/68/68 24/66/66 
f 22/71/71 21/69/69 23/72/72 24/70/70 
o 003_Box_1
g Box_1
usemtl Porcelain_47ea80bb-c677-4db3-8220-404cf8a16398
v -5.000 0.000 -695.000
v -55.000 0.000 -745.000
v -5.000 0.000 -745.000
v -55.000 0.000 -695.000
v -55.000 700.000 -695.000
v -55.000 700.000 -745.000
v -5.000 700.000 -695.000
v -5.000 700.000 -745.000
vt 0.00000 0.00000
vt 1.00000 1.00000
vt 0.00000 1.00000
vt 1.00000 0.00000
vt 0.00000 0.00000
vt 1.00000 1.00000
vt 0.00000 1.00000
vt 1.00000 0.00000
vt 0.00000 0.00000
vt 1.00000 1.00000
vt 0.00000 1.00000
vt 1.00000 0.00000
vt 0.00000 0.00000
vt 1.00000 1.00000
vt 0.00000 1.00000
vt 1.00000 0.00000
vt 0.00000 0.00000
vt 1.00000 1.00000
vt 0.00000 1.00000
vt 1.00000 0.00000
vt 0.00000 0.00000
vt 1.00000 1.00000
vt 0.00000 1.00000
vt 1.00000 0.00000
vn 0.00000 -1.00000 -0.00000
vn 0.00000 -1.00000 -0.00000
vn 0.00000 -1.00000 -0.00000
vn 0.00000 -1.00000 -0.00000
vn -1.00000 0.00000 0.00000
vn -1.00000 0.00000 0.00000
vn -1.00000 0.00000 0.00000
vn -1.00000 0.00000 0.00000
vn 0.00000 -0.00000 1.00000
vn 0.00000 -0.00000 1.00000
vn 0.00000 -0.00000 1.00000
vn 0.00000 -0.00000 1.00000
vn 0.00000 0.00000 -1.00000
vn 0.00000 0.00000 -1.00000
vn 0.00000 0.00000 -1.00000
vn 0.00000 0.00000 -1.00000
vn 1.00000 0.00000 0.00000
vn 1.00000 0.00000 0.00000
vn 1.00000 0.00000 0.00000
vn 1.00000 0.00000 0.00000
vn 0.00000 1.00000 0.00000
vn 0.00000 1.00000 0.00000
vn 0.00000 1.00000 0.00000
vn 0.00000 1.00000 0.00000
f 27/75/75 25/73/73 28/76/76 26/74/74 
f 30/79/79 26/77/77 28/80/80 29/78/78 
f 29/83/83 28/81/81 25/84/84 31/82/82 
f 32/87/87 27/85/85 26/88/88 30/86/86 
f 31/91/91 25/89/89 27/92/92 32/90/90 
f 30/95/95 29/93/93 31/96/96 32/94/94 
o 004_Box
g Box
usemtl Irish Beauty_93888ec7-173e-4540-afb8-da04c53bb6e1
v 1430.000 690.000 40.000
v -70.000 690.000 -760.000
v 1430.000 690.000 -760.000
v -70.000 690.000 40.000
v -70.000 722.000 40.000
v -70.000 722.000 -760.000
v 1430.000 722.000 40.000
v 1430.000 722.000 -760.000
vt 0.00000 0.00000
vt 1.00000 1.00000
vt 0.00000 1.00000
vt 1.00000 0.00000
vt 0.00000 0.00000
vt 1.00000 1.00000
vt 0.00000 1.00000
vt 1.00000 0.00000
vt 0.00000 0.00000
vt 1.00000 1.00000
vt 0.00000 1.00000
vt 1.00000 0.00000
vt 0.00000 0.00000
vt 1.00000 1.00000
vt 0.00000 1.00000
vt 1.00000 0.00000
vt 0.00000 0.00000
vt 1.00000 1.00000
vt 0.00000 1.00000
vt 1.00000 0.00000
vt 0.00000 0.00000
vt 1.00000 1.00000
vt 0.00000 1.00000
vt 1.00000 0.00000
vn 0.00000 -1.00000 -0.00000
vn 0.00000 -1.00000 -0.00000
vn 0.00000 -1.00000 -0.00000
vn 0.00000 -1.00000 -0.00000
vn -1.00000 0.00000 0.00000
vn -1.00000 0.00000 0.00000
vn -1.00000 0.00000 0.00000
vn -1.00000 0.00000 0.00000
vn 0.00000 -0.00000 1.00000
vn 0.00000 -0.00000 1.00000
vn 0.00000 -0.00000 1.00000
vn 0.00000 -0.00000 1.00000
vn 0.00000 0.00000 -1.00000
vn 0.00000 0.00000 -1.00000
vn 0.00000 0.00000 -1.00000
vn 0.00000 0.00000 -1.00000
vn 1.00000 0.00000 0.00000
vn 1.00000 0.00000 0.00000
vn 1.00000 0.00000 0.00000
vn 1.00000 0.00000 0.00000
vn 0.00000 1.00000 0.00000
vn 0.00000 1.00000 0.00000
vn 0.00000 1.00000 0.00000
vn 0.00000 1.00000 0.00000
f 35/99/99 33/97/97 36/100/100 34/98/98 
f 38/103/103 34/101/101 36/104/104 37/102/102 
f 37/107/107 36/105/105 33/108/108 39/106/106 
f 40/111/111 35/109/109 34/112/112 38/110/110 
f 39/115/115 33/113/113 35/116/116 40/114/114 
f 38/119/119 37/117/117 39/120/120 40/118/118 
