# Blender 3.3.1
# www.blender.org
mtllib untitled.mtl
o Cube
v -0.272850 1.983393 -0.632876
v 0.545095 -0.016607 -1.437402
v -0.272850 1.983393 -0.568714
v 0.545095 -0.016607 0.235812
v -0.310174 1.983393 -0.632876
v -1.128119 -0.016607 -1.437402
v -0.310174 1.983393 -0.568714
v -1.128119 -0.016607 0.235812
v -0.272850 4.589946 -0.632876
v -0.272850 4.589946 -0.568714
v -0.310174 4.589946 -0.632876
v -0.310174 4.589946 -0.568714
v -0.108748 1.983393 -0.418030
v -0.474277 1.983393 -0.418030
v -0.108748 1.983393 -0.783559
v -0.474277 1.983393 -0.783559
v -1.291512 -0.016607 -1.600795
v -1.291512 -0.016607 0.399205
v 0.708488 -0.016607 -1.600795
v 0.708488 -0.016607 0.399205
v 0.545095 0.869840 -1.437402
v 0.545095 0.869840 0.235812
v -1.128119 0.869840 -1.437402
v -1.128119 0.869840 0.235812
v 0.708488 0.574775 -1.600795
v 0.708488 0.574775 0.399205
v -1.291512 0.574775 0.399205
v -1.291512 0.574775 -1.600795
v 0.708488 0.570292 0.399205
v 0.287147 1.587498 -0.022135
v -0.870172 1.587498 -0.022135
v -1.291512 0.570292 0.399205
v 0.708488 0.570292 -1.600795
v 0.287147 1.587498 -1.179454
v -0.870172 1.587498 -1.179454
v -1.291512 0.570292 -1.600795
vn -0.0000 -0.0000 -1.0000
vn -0.0000 1.0000 -0.0000
vn -1.0000 -0.0000 -0.0000
vn -0.7071 0.7071 -0.0000
vn -0.0000 0.7071 -0.7071
vn 1.0000 -0.0000 -0.0000
vn -0.0000 -0.0000 1.0000
vn -0.0000 0.7071 0.7071
vn -0.0000 -1.0000 -0.0000
vn -0.0000 0.3827 0.9239
vn 0.9239 0.3827 -0.0000
vn -0.9239 0.3827 -0.0000
vn -0.0000 0.3827 -0.9239
vn 0.7071 0.7071 -0.0000
vt 0.730982 0.605982
vt 0.354576 0.520424
vt 0.730982 0.644018
vt 0.354576 0.729576
vt 0.769018 0.605982
vt 0.145424 0.520424
vt 0.769018 0.644018
vt 0.145424 0.729576
vt 0.730982 0.605982
vt 0.730982 0.644018
vt 0.769018 0.605982
vt 0.769018 0.644018
vt 0.625000 0.852154
vt 0.727154 0.647846
vt 0.625000 0.102154
vt 0.772846 0.647846
vt 0.625000 0.897846
vt 0.625000 0.397846
vt 0.727154 0.602154
vt 0.625000 0.147846
vt 0.772846 0.602154
vt 0.625000 0.352154
vt 0.125000 0.500000
vt 0.375000 0.250000
vt 0.125000 0.750000
vt 0.375000 0.000000
vt 0.375000 1.000000
vt 0.375000 0.500000
vt 0.375000 0.750000
vt 0.354576 0.520424
vt 0.354576 0.729576
vt 0.145424 0.520424
vt 0.145424 0.729576
vt 0.448923 0.500000
vt 0.448923 0.750000
vt 0.448923 0.000000
vt 0.448923 1.000000
vt 0.448923 0.250000
vt 0.448362 0.750000
vt 0.575513 0.802668
vt 0.628181 0.697332
vt 0.575513 0.947332
vt 0.575513 0.052668
vt 0.448362 1.000000
vt 0.448362 0.000000
vt 0.448362 0.500000
vt 0.575513 0.447332
vt 0.628181 0.552668
vt 0.575513 0.197332
vt 0.575513 0.302668
vt 0.448362 0.250000
s 0
usemtl Material
f 1/1/1 5/5/1 11/11/1 9/9/1
f 1/1/2 3/3/2 13/14/2 15/19/2
f 7/7/2 5/5/2 16/21/2 14/16/2
f 2/2/3 4/4/3 22/31/3 21/30/3
f 14/15/4 16/20/4 35/49/4 31/43/4
f 5/5/2 1/1/2 15/19/2 16/21/2
f 16/22/5 15/18/5 34/47/5 35/50/5
f 3/3/2 7/7/2 14/16/2 13/14/2
f 9/9/2 11/11/2 12/12/2 10/10/2
f 3/3/6 1/1/6 9/9/6 10/10/6
f 5/5/3 7/7/3 12/12/3 11/11/3
f 7/7/7 3/3/7 10/10/7 12/12/7
f 26/35/1 29/39/1 32/44/1 27/37/1
f 25/34/3 33/46/3 29/39/3 26/35/3
f 27/36/6 32/45/6 36/51/6 28/38/6
f 28/38/7 36/51/7 33/46/7 25/34/7
f 13/13/8 14/17/8 31/42/8 30/40/8
f 6/6/9 8/8/9 18/25/9 17/23/9
f 2/2/9 6/6/9 17/23/9 19/28/9
f 8/8/9 4/4/9 20/29/9 18/25/9
f 4/4/9 2/2/9 19/28/9 20/29/9
f 23/32/9 21/30/9 22/31/9 24/33/9
f 6/6/7 2/2/7 21/30/7 23/32/7
f 4/4/1 8/8/1 24/33/1 22/31/1
f 8/8/6 6/6/6 23/32/6 24/33/6
f 19/28/6 25/34/6 26/35/6 20/29/6
f 17/24/1 28/38/1 25/34/1 19/28/1
f 18/26/3 27/36/3 28/38/3 17/24/3
f 20/29/7 26/35/7 27/37/7 18/27/7
f 32/44/10 29/39/10 30/40/10 31/42/10
f 29/39/11 33/46/11 34/48/11 30/41/11
f 36/51/12 32/45/12 31/43/12 35/49/12
f 33/46/13 36/51/13 35/50/13 34/47/13
f 15/19/14 13/14/14 30/41/14 34/48/14
